<svg id="Layer_1" data-name="Layer 1" xmlns="http://www.w3.org/2000/svg" viewBox="0 0 628 348.3"><defs><style>.cls-1{fill:none;stroke:#38434b;stroke-width:2px;}.cls-2{fill:#3dcfff;}.cls-3{font-size:12px;fill:#38434b;font-family:Clavo;font-style:italic;}.cls-4{letter-spacing:-1px;}</style></defs><title>InfromationArchitectureMap</title><line class="cls-1" x1="44.5" y1="98.2" x2="449.5" y2="98.2"/><line class="cls-1" x1="45.5" y1="20" x2="583.5" y2="20"/><line class="cls-1" x1="448.5" y1="98.85" x2="448.5" y2="253.35"/><line class="cls-1" x1="179.5" y1="79.8" x2="179.5" y2="329.3"/><line class="cls-1" x1="314.5" y1="98.2" x2="314.5" y2="268.7"/><line class="cls-1" x1="44.5" y1="19" x2="44.5" y2="325.5"/><rect class="cls-2" width="89" height="38"/><text class="cls-3" transform="translate(28.44 19.24)">H<tspan x="9.37" y="0">o</tspan><tspan x="15.88" y="0">m</tspan><tspan x="26.4" y="0">e</tspan></text><rect class="cls-2" x="135" width="89" height="38"/><text class="cls-3" transform="translate(161.74 19.24)">S<tspan x="5.92" y="0">e</tspan><tspan x="11.5" y="0">a</tspan><tspan x="18.13" y="0">r</tspan><tspan x="22.8" y="0">c</tspan><tspan x="28.31" y="0">h</tspan></text><rect class="cls-2" x="269" width="89" height="38"/><text class="cls-3" transform="translate(293.06 19.24)">S<tspan x="5.8" y="0">i</tspan><tspan x="8.78" y="0">g</tspan><tspan x="14.98" y="0">n </tspan><tspan x="25" y="0">U</tspan><tspan x="33.91" y="0">p</tspan></text><rect class="cls-2" x="539" y="2" width="89" height="38"/><text class="cls-3" transform="translate(562.79 21.24)">S<tspan x="5.92" y="0">e</tspan><tspan x="11.58" y="0">t</tspan><tspan x="15.72" y="0">t</tspan><tspan x="19.93" y="0">i</tspan><tspan x="22.9" y="0">n</tspan><tspan x="30" y="0">g</tspan><tspan x="36.28" y="0">s</tspan></text><rect class="cls-2" x="404" width="89" height="38"/><text class="cls-3" transform="translate(430.69 19.24)">S<tspan x="5.8" y="0">i</tspan><tspan x="8.78" y="0">g</tspan><tspan x="14.98" y="0">n </tspan><tspan x="25" y="0">I</tspan><tspan x="28.44" y="0">n</tspan></text><rect class="cls-2" x="404" y="79.8" width="89" height="38"/><text class="cls-3" transform="translate(424.94 99.04)">P<tspan x="6.97" y="0">r</tspan><tspan x="11.65" y="0">o</tspan><tspan x="18.36" y="0">d</tspan><tspan x="25.14" y="0">u</tspan><tspan x="32.11" y="0">c</tspan><tspan x="37.98" y="0">t</tspan><tspan x="41.98" y="0">s</tspan></text><rect class="cls-2" x="404" y="234.3" width="89" height="38"/><text class="cls-3" transform="translate(421.32 253.54)">C<tspan x="7.39" y="0">h</tspan><tspan x="14.41" y="0">e</tspan><tspan x="19.99" y="0">c</tspan><tspan x="25.5" y="0">k </tspan><tspan x="34.52" y="0">O</tspan><tspan x="43.51" y="0">u</tspan><tspan x="50.39" y="0">t</tspan></text><rect class="cls-2" x="404" y="157.7" width="89" height="38"/><text class="cls-3" transform="translate(436.94 176.94)">C<tspan x="7.51" y="0">a</tspan><tspan x="14.15" y="0">r</tspan><tspan x="19.1" y="0">t</tspan></text><rect class="cls-2" x="270.5" y="79.2" width="89" height="38"/><text class="cls-3" transform="translate(303.28 98.44)">B<tspan x="7.33" y="0">l</tspan><tspan x="10.42" y="0">o</tspan><tspan x="17.02" y="0">g</tspan></text><rect class="cls-2" y="79.2" width="89" height="38"/><text class="cls-3" transform="translate(23.81 98.44)">H<tspan x="9.37" y="0">o</tspan><tspan x="16.04" y="0">w</tspan><tspan x="25.66" y="0"> </tspan><tspan class="cls-4" x="28.54" y="0">T</tspan><tspan x="34.58" y="0">o</tspan></text><rect class="cls-2" x="270.5" y="233.2" width="89" height="38"/><text class="cls-3" transform="translate(287.6 252.44)">C<tspan x="7.51" y="0">a</tspan><tspan x="14.04" y="0">t</tspan><tspan x="17.71" y="0">e</tspan><tspan x="23.32" y="0">g</tspan><tspan x="29.51" y="0">o</tspan><tspan x="36.01" y="0">r</tspan><tspan x="41.06" y="0">i</tspan><tspan x="44.02" y="0">e</tspan><tspan x="49.65" y="0">s</tspan></text><rect class="cls-2" x="270.5" y="157.1" width="89" height="38"/><text class="cls-3" transform="translate(297.87 176.34)">A<tspan x="7.81" y="0">r</tspan><tspan x="12.77" y="0">t</tspan><tspan x="16.98" y="0">i</tspan><tspan x="19.94" y="0">c</tspan><tspan x="25.42" y="0">l</tspan><tspan x="28.54" y="0">e</tspan></text><rect class="cls-2" y="234.35" width="89" height="38"/><text class="cls-3" transform="translate(15.07 253.59)">P<tspan x="6.97" y="0">r</tspan><tspan x="11.65" y="0">o</tspan><tspan x="18.36" y="0">d</tspan><tspan x="25.14" y="0">u</tspan><tspan x="32.11" y="0">c</tspan><tspan x="37.98" y="0">t</tspan><tspan x="42.18" y="0">i</tspan><tspan x="45.14" y="0">o</tspan><tspan x="51.65" y="0">n</tspan></text><rect class="cls-2" y="310.3" width="89" height="38"/><text class="cls-3" transform="translate(11.99 329.54)">I<tspan x="3.44" y="0">n</tspan><tspan x="10.42" y="0">f</tspan><tspan x="13.8" y="0">o</tspan><tspan x="20.75" y="0">-</tspan><tspan x="25.22" y="0">g</tspan><tspan x="31.42" y="0">r</tspan><tspan x="36.02" y="0">a</tspan><tspan x="42.66" y="0">p</tspan><tspan x="49.34" y="0">h</tspan><tspan x="56.28" y="0">i</tspan><tspan x="59.24" y="0">c</tspan></text><rect class="cls-2" x="1" y="149.7" width="89" height="38"/><text class="cls-3" transform="translate(12.99 168.94)">I<tspan x="3.44" y="0">n</tspan><tspan x="10.42" y="0">f</tspan><tspan x="13.8" y="0">o</tspan><tspan x="20.75" y="0">-</tspan><tspan x="25.22" y="0">g</tspan><tspan x="31.42" y="0">r</tspan><tspan x="36.02" y="0">a</tspan><tspan x="42.67" y="0">p</tspan><tspan x="49.35" y="0">h</tspan><tspan x="56.29" y="0">i</tspan><tspan x="59.25" y="0">c</tspan></text><rect class="cls-2" x="135.5" y="79.2" width="89" height="38"/><text class="cls-3" transform="translate(163.92 98.44)">A<tspan x="7.8" y="0">b</tspan><tspan x="14.75" y="0">o</tspan><tspan x="21.3" y="0">u</tspan><tspan x="28.18" y="0">t</tspan></text><rect class="cls-2" x="135.5" y="233.7" width="89" height="38"/><text class="cls-3" transform="translate(157.61 252.94)">P<tspan x="6.24" y="0">a</tspan><tspan x="12.89" y="0">r</tspan><tspan x="17.84" y="0">t</tspan><tspan x="22.08" y="0">n</tspan><tspan x="29.1" y="0">e</tspan><tspan x="34.91" y="0">r</tspan><tspan x="39.61" y="0">s</tspan></text><rect class="cls-2" x="135.5" y="310.3" width="89" height="38"/><text class="cls-3" transform="translate(154.3 329.54)">L<tspan x="6.42" y="0">o</tspan><tspan x="13.13" y="0">c</tspan><tspan x="18.8" y="0">a</tspan><tspan x="25.33" y="0">t</tspan><tspan x="29.53" y="0">i</tspan><tspan x="32.5" y="0">o</tspan><tspan x="39" y="0">n</tspan><tspan x="46.26" y="0">s</tspan></text><rect class="cls-2" x="135.5" y="157.1" width="89" height="38"/><text class="cls-3" transform="translate(159.46 176.34)">Co<tspan x="13.92" y="0">n</tspan><tspan x="20.81" y="0">ta</tspan><tspan x="31.25" y="0">c</tspan><tspan x="37.12" y="0">t</tspan></text></svg>