<svg xmlns="http://www.w3.org/2000/svg" xmlns:xlink="http://www.w3.org/1999/xlink" viewBox="0 0 260.92 151.84"><defs><style>.cls-1,.cls-17,.cls-23{fill:#e63a56;}.cls-2{fill:#dce242;}.cls-3,.cls-30,.cls-6{fill:#593d84;}.cls-4{fill:#0c4774;}.cls-5{fill:#e08342;}.cls-6{font-size:18.61px;letter-spacing:0.08em;}.cls-30,.cls-6{font-family:Garamond-Bold, Garamond;font-weight:700;}.cls-7{letter-spacing:0.12em;}.cls-8{letter-spacing:0.08em;}.cls-9{letter-spacing:0.09em;}.cls-10{letter-spacing:0.14em;}.cls-11{letter-spacing:0.07em;}.cls-12{letter-spacing:0.08em;}.cls-13{letter-spacing:0.07em;}.cls-14{letter-spacing:0.08em;}.cls-15{letter-spacing:0.08em;}.cls-16{letter-spacing:0.08em;}.cls-17,.cls-23{font-size:40.6px;font-family:Garamond-Italic, Garamond;font-style:italic;}.cls-17{letter-spacing:0.04em;}.cls-18{letter-spacing:0.04em;}.cls-19{letter-spacing:0.01em;}.cls-20{letter-spacing:0.07em;}.cls-21{letter-spacing:0.01em;}.cls-22{letter-spacing:0.03em;}.cls-23{letter-spacing:-0.04em;}.cls-24{letter-spacing:-0.01em;}.cls-25{letter-spacing:-0.05em;}.cls-26{letter-spacing:-0.06em;}.cls-27{letter-spacing:-0.05em;}.cls-28{letter-spacing:-0.04em;}.cls-29{letter-spacing:-0.02em;}.cls-30{font-size:20.3px;letter-spacing:0.52em;}.cls-31{letter-spacing:0.5em;}.cls-32{letter-spacing:0.5em;}.cls-33{letter-spacing:0.51em;}.cls-34{letter-spacing:0.53em;}.cls-35{letter-spacing:0.42em;}.cls-36{letter-spacing:0.54em;}.cls-37{letter-spacing:0.5em;}</style><symbol id="BlossomPettle" data-name="BlossomPettle" viewBox="0 0 13.64 12.7"><path class="cls-1" d="M4.26,4.15A6,6,0,0,0,4,3.29,2.45,2.45,0,0,1,5.36.37c.42-.19.5-.14.5-.14a1.69,1.69,0,0,1,.27.4c.12.24.85.11,1-.15L7.32,0S9,.28,8.92,1.66a6.28,6.28,0,0,1-.15,1.46s.14.21.18.11A2.27,2.27,0,0,1,11.77,2c1.08.21,1.23.51,1.17.6-.24.35-1,1.4.52,1.19.24,0,.61,2.27-1.72,2.74a6.08,6.08,0,0,0-.75.25c-.13,0-.18.17.16.25a2,2,0,0,1,1.45,2.78c-.21.58-.4.8-.53.81a.7.7,0,0,0-1.14.6c0,.16.15.24,0,.37s-1.89,1-2.68-.16-.65-1-.65-1-.16-.18-.13,0A2.34,2.34,0,0,1,4.91,12.7c-.32,0-.09,0-.09-.15a.6.6,0,0,0-.49-.68.86.86,0,0,0-.91.3c-.23.2-.28.11-.37.06a2,2,0,0,1,0-3.48c1-.43-.11-.19-.18-.17A2.14,2.14,0,0,1,.15,7.41a1.59,1.59,0,0,1-.1-1c.07-.1.25-.07.25-.07s1.07-.29.3-1c-.22,0-.34-.07-.26-.23s1-1.84,1.76-1.83a3.55,3.55,0,0,1,2,.91c.07.21.14,0,.14,0"/></symbol></defs><title>logoArtboard 1</title><g id="Flowers"><g id="_7" data-name="7"><path class="cls-1" d="M57.09,90.59a11.36,11.36,0,0,0-.54-1.51,4,4,0,0,1,2.11-5c.67-.3.8-.22.8-.22a3.24,3.24,0,0,1,.46.7c.2.42,1.4.24,1.6-.2s.33-.8.33-.8,2.7.58,2.71,3a10.93,10.93,0,0,1-.17,2.51s.24.37.31.2.93-2.87,4.52-2c1.78.43,2,1,2,1.1-.38.59-1.52,2.35.92,2.08.39,0,1.13,4-2.64,4.62a9.37,9.37,0,0,0-1.21.39c-.21,0-.28.27.28.44a3.78,3.78,0,0,1,2.53,4.88c-.31,1-.6,1.36-.81,1.38-.74-.47-1.79-.4-1.82,1,0,.28.26.42-.05.63s-3,1.59-4.38-.43-1.12-1.79-1.12-1.79-.28-.32-.21.07a3.63,3.63,0,0,1-4,3.78c-.51,0-.14,0-.16-.27a1.12,1.12,0,0,0-.83-1.21,1.29,1.29,0,0,0-1.47.46c-.36.32-.45.18-.6.08-2.73-1.81-1.71-5.31-.17-6s-.19-.34-.3-.31A3.59,3.59,0,0,1,50.57,96a3,3,0,0,1-.23-1.77c.1-.17.4-.11.4-.11s1.72-.44.43-1.65c-.36-.06-.55-.15-.44-.41S52.3,88.92,53.5,89a6.13,6.13,0,0,1,3.36,1.7c.12.36.24-.07.24-.07"/><path class="cls-2" d="M58.45,93a.73.73,0,1,0-.73-.73.73.73,0,0,0,.73.73"/><path class="cls-3" d="M60.7,94a.3.3,0,1,0-.16-.4.3.3,0,0,0,.16.4"/><path class="cls-2" d="M61.21,100.23a.73.73,0,1,0-.73-.73.73.73,0,0,0,.73.73"/><path class="cls-2" d="M65.7,96.24a.73.73,0,1,0-.73-.73.73.73,0,0,0,.73.73"/><path class="cls-3" d="M60.62,97.17a.3.3,0,1,0-.16-.4.3.3,0,0,0,.16.4"/><path class="cls-3" d="M63,96.35a.3.3,0,1,0-.16-.4.3.3,0,0,0,.16.4"/><path class="cls-2" d="M64.48,93a.73.73,0,1,0-.73-.73.73.73,0,0,0,.73.73"/><path class="cls-3" d="M63,94.9a.3.3,0,1,0-.16-.4.3.3,0,0,0,.16.4"/><path class="cls-2" d="M61.67,92a.73.73,0,1,0-.73-.73.73.73,0,0,0,.73.73"/><path class="cls-3" d="M62.11,94.06a.3.3,0,1,0-.16-.4.3.3,0,0,0,.16.4"/><path class="cls-2" d="M64.48,99.07a.73.73,0,1,0-.73-.73.73.73,0,0,0,.73.73"/><path class="cls-3" d="M62.06,97.25a.3.3,0,1,0-.16-.4.3.3,0,0,0,.16.4"/><path class="cls-4" d="M61.55,96a.73.73,0,1,0-.73-.73.73.73,0,0,0,.73.73"/><path class="cls-5" d="M61.42,95.52a.3.3,0,1,0-.16-.39.3.3,0,0,0,.16.39"/><path class="cls-2" d="M58.45,99a.73.73,0,1,0-.73-.73.73.73,0,0,0,.73.73"/><path class="cls-3" d="M59.74,96.26a.3.3,0,1,0-.16-.4.3.3,0,0,0,.16.4"/><path class="cls-2" d="M57.23,95.8a.73.73,0,1,0-.73-.73.73.73,0,0,0,.73.73"/><path class="cls-3" d="M59.79,94.83a.3.3,0,1,0-.16-.4.3.3,0,0,0,.16.4"/></g><g id="_6" data-name="6"><path class="cls-1" d="M56.24,118.08a4.7,4.7,0,0,0-.19-.52,1.35,1.35,0,0,1,.65-1.68c.22-.1.26-.07.26-.07a1.17,1.17,0,0,1,.16.24c.07.15.46.09.52-.05l.1-.27a1.21,1.21,0,0,1,.92,1,4,4,0,0,1,0,.86s.08.13.1.07.28-1,1.47-.65c.59.17.68.35.65.4-.12.2-.48.79.32.72a1.08,1.08,0,0,1-.83,1.56,3,3,0,0,0-.4.12c-.07,0-.09.09.1.15a1.38,1.38,0,0,1,.88,1.7c-.09.33-.19.46-.25.47-.25-.17-.6-.15-.59.32,0,.1.09.15,0,.22s-1,.52-1.45-.19-.38-.63-.38-.63-.1-.11-.07,0a1.15,1.15,0,0,1-1.29,1.26c-.17,0,0,0-.05-.09a.41.41,0,0,0-.29-.42.39.39,0,0,0-.48.14c-.12.11-.15.06-.2,0a1.26,1.26,0,0,1-.11-2.06c.5-.22-.07-.12-.1-.11a1.21,1.21,0,0,1-1.52-.78,1.06,1.06,0,0,1-.09-.61c0-.06.13,0,.13,0s.56-.13.13-.56c-.12,0-.18-.06-.15-.15s.49-1.05.88-1a2.14,2.14,0,0,1,1.12.61c0,.12.08,0,.08,0"/><path class="cls-2" d="M56.83,118.78a.2.2,0,1,0-.2-.2.2.2,0,0,0,.2.2"/><path class="cls-3" d="M57.44,119a.08.08,0,1,0,0-.11.08.08,0,0,0,0,.11"/><path class="cls-2" d="M57.58,120.73a.2.2,0,1,0-.2-.2.2.2,0,0,0,.2.2"/><path class="cls-3" d="M57.42,119.91a.08.08,0,1,0,0-.11.08.08,0,0,0,0,.11"/><path class="cls-2" d="M58.8,119.65a.2.2,0,1,0-.2-.2.2.2,0,0,0,.2.2"/><path class="cls-3" d="M58.06,119.68a.08.08,0,0,0,.11,0,.08.08,0,1,0-.11,0"/><path class="cls-2" d="M58.47,118.77a.2.2,0,1,0-.2-.2.2.2,0,0,0,.2.2"/><path class="cls-3" d="M58.08,119.29a.08.08,0,0,0,.11,0,.08.08,0,1,0-.15-.06.08.08,0,0,0,0,.11"/><path class="cls-2" d="M57.71,118.49a.2.2,0,1,0-.2-.2.2.2,0,0,0,.2.2"/><path class="cls-3" d="M57.83,119.06a.08.08,0,1,0,0-.11.08.08,0,0,0,0,.11"/><path class="cls-2" d="M58.47,120.42a.2.2,0,1,0-.2-.2.2.2,0,0,0,.2.2"/><path class="cls-3" d="M57.81,119.93a.08.08,0,1,0,0-.11.08.08,0,0,0,0,.11"/><path class="cls-2" d="M57.67,119.59a.2.2,0,1,0-.2-.2.2.2,0,0,0,.2.2"/><path class="cls-4" d="M57.64,119.47a.08.08,0,1,0,.06-.15.08.08,0,0,0-.11,0,.08.08,0,0,0,0,.11"/><path class="cls-2" d="M56.83,120.4a.2.2,0,1,0-.2-.2.2.2,0,0,0,.2.2"/><path class="cls-3" d="M57.18,119.66a.08.08,0,1,0,0-.11.08.08,0,0,0,0,.11"/><path class="cls-2" d="M56.5,119.53a.2.2,0,1,0-.2-.2.2.2,0,0,0,.2.2"/><path class="cls-3" d="M57.2,119.27a.08.08,0,0,0,.11,0,.08.08,0,0,0,0-.11.08.08,0,0,0-.11,0,.08.08,0,0,0,0,.11"/></g><g id="_5" data-name="5"><path class="cls-1" d="M56.27,32.58a4.7,4.7,0,0,0-.19-.52,1.36,1.36,0,0,1,.65-1.68c.22-.09.26-.07.26-.07a1.21,1.21,0,0,1,.16.24c.07.15.46.09.52-.05l.1-.27a1.22,1.22,0,0,1,.92,1,4,4,0,0,1,0,.86s.08.13.1.07.28-1,1.47-.65c.59.16.68.35.65.4-.12.2-.48.79.32.72a1.08,1.08,0,0,1-.83,1.56,2.88,2.88,0,0,0-.39.12c-.07,0-.09.09.1.15A1.38,1.38,0,0,1,61,36.2c-.09.33-.18.46-.25.47-.25-.17-.59-.15-.59.32,0,.1.09.15,0,.22s-1,.52-1.45-.19-.39-.63-.39-.63-.09-.11-.07,0a1.15,1.15,0,0,1-1.29,1.26c-.17,0,0,0-.05-.09a.41.41,0,0,0-.29-.42.4.4,0,0,0-.48.14c-.11.11-.15.06-.19,0a1.27,1.27,0,0,1-.11-2.06c.5-.22-.07-.12-.1-.11a1.22,1.22,0,0,1-1.52-.78,1.07,1.07,0,0,1-.09-.61c0-.06.13,0,.13,0s.56-.13.13-.56c-.12,0-.18-.06-.15-.15s.49-1.05.88-1a2.14,2.14,0,0,1,1.12.61c0,.12.08,0,.08,0"/><path class="cls-2" d="M57,33.37a.2.2,0,1,0-.2-.2.2.2,0,0,0,.2.2"/><path class="cls-3" d="M57.58,33.62a.08.08,0,1,0,0-.11.08.08,0,0,0,0,.11"/><path class="cls-2" d="M57.72,35.32a.2.2,0,1,0-.2-.2.2.2,0,0,0,.2.2"/><path class="cls-3" d="M57.56,34.49a.08.08,0,1,0,0-.11.08.08,0,0,0,0,.11"/><path class="cls-2" d="M58.94,34.24a.2.2,0,1,0-.2-.2.2.2,0,0,0,.2.2"/><path class="cls-3" d="M58.2,34.27a.08.08,0,0,0,.11,0,.08.08,0,1,0-.11,0"/><path class="cls-2" d="M58.61,33.35a.2.2,0,1,0-.2-.2.2.2,0,0,0,.2.2"/><path class="cls-3" d="M58.21,33.88a.08.08,0,0,0,.11,0,.08.08,0,1,0-.15-.06.08.08,0,0,0,0,.11"/><path class="cls-2" d="M57.84,33.08a.2.2,0,1,0-.2-.2.2.2,0,0,0,.2.2"/><path class="cls-3" d="M58,33.65a.08.08,0,1,0,0-.11.08.08,0,0,0,0,.11"/><path class="cls-2" d="M58.61,35a.2.2,0,1,0-.2-.2.2.2,0,0,0,.2.2"/><path class="cls-3" d="M57.95,34.51a.08.08,0,1,0,0-.11.08.08,0,0,0,0,.11"/><path class="cls-2" d="M57.81,34.17a.2.2,0,1,0-.2-.2.2.2,0,0,0,.2.2"/><path class="cls-4" d="M57.78,34a.08.08,0,1,0,.06-.15.08.08,0,0,0-.11,0,.08.08,0,0,0,0,.11"/><path class="cls-2" d="M57,35a.2.2,0,1,0-.2-.2.2.2,0,0,0,.2.2"/><path class="cls-3" d="M57.32,34.25a.08.08,0,1,0,0-.11.08.08,0,0,0,0,.11"/><path class="cls-2" d="M56.64,34.12a.2.2,0,1,0-.2-.2.2.2,0,0,0,.2.2"/><path class="cls-3" d="M57.33,33.86a.08.08,0,0,0,.11,0,.08.08,0,0,0,0-.11.08.08,0,0,0-.11,0,.08.08,0,0,0,0,.11"/></g><g id="_4" data-name="4"><use width="13.64" height="12.7" transform="translate(32.63 123.21)" xlink:href="#BlossomPettle"/><path class="cls-2" d="M38.44,128.78a.35.35,0,1,0-.35-.35.35.35,0,0,0,.35.35"/><path class="cls-5" d="M39.54,129.23a.15.15,0,0,0,.19-.08.15.15,0,0,0-.27-.11.15.15,0,0,0,.08.19"/><path class="cls-2" d="M39.7,132.2a.35.35,0,1,0-.35-.35.35.35,0,0,0,.35.35"/><path class="cls-5" d="M39.5,130.8a.15.15,0,1,0-.08-.19.15.15,0,0,0,.08.19"/><path class="cls-2" d="M42,130.34a.35.35,0,1,0-.35-.35.35.35,0,0,0,.35.35"/><path class="cls-5" d="M40.65,130.4a.15.15,0,0,0,.19-.08.15.15,0,1,0-.19.08"/><path class="cls-2" d="M41.38,128.75a.35.35,0,1,0-.35-.35.35.35,0,0,0,.35.35"/><path class="cls-5" d="M40.68,129.69a.15.15,0,1,0-.08-.19.15.15,0,0,0,.08.19"/><path class="cls-2" d="M40,128.26a.35.35,0,1,0-.35-.35.35.35,0,0,0,.35.35"/><path class="cls-5" d="M40.23,129.28a.15.15,0,1,0-.08-.19.15.15,0,0,0,.08.19"/><path class="cls-2" d="M41.38,131.72a.35.35,0,1,0-.35-.35.35.35,0,0,0,.35.35"/><path class="cls-5" d="M40.2,130.83a.15.15,0,0,0,.19-.08.15.15,0,0,0-.08-.19.15.15,0,0,0-.11.27"/><path class="cls-2" d="M40,130.21a.35.35,0,1,0-.35-.35.35.35,0,0,0,.35.35"/><path class="cls-4" d="M39.91,130a.15.15,0,0,0,.19-.08.15.15,0,1,0-.27-.11.15.15,0,0,0,.08.19"/><path class="cls-2" d="M38.44,131.69a.35.35,0,1,0-.35-.35.35.35,0,0,0,.35.35"/><path class="cls-5" d="M39.07,130.35a.15.15,0,1,0-.08-.19.15.15,0,0,0,.08.19"/><path class="cls-2" d="M37.85,130.13a.35.35,0,1,0-.35-.35.35.35,0,0,0,.35.35"/><path class="cls-5" d="M39.09,129.66a.15.15,0,1,0-.08-.19.15.15,0,0,0,.08.19"/></g><g id="_3" data-name="3"><path class="cls-1" d="M24.22,96.14a9.65,9.65,0,0,0-.49-1.4A4,4,0,0,1,26,90c.67-.3.8-.23.8-.23a2.69,2.69,0,0,1,.43.64c.19.39,1.38.18,1.59-.24s.36-.76.36-.76,2.66.45,2.6,2.69a10,10,0,0,1-.25,2.36s.22.35.3.17,1-2.73,4.56-2c1.75.34,2,.83,1.9,1-.4.56-1.59,2.26.84,1.92.39,0,1,3.68-2.78,4.43a10.45,10.45,0,0,0-1.21.4c-.21.05-.29.27.27.4a3.3,3.3,0,0,1,2.35,4.5c-.34.94-.65,1.3-.85,1.32a1.14,1.14,0,0,0-1.84,1c-.05.27.25.39-.08.6s-3.06,1.6-4.33-.26-1-1.65-1-1.65-.27-.29-.21.08A3.78,3.78,0,0,1,25.28,110c-.51,0-.14,0-.15-.25a1,1,0,0,0-.78-1.11,1.39,1.39,0,0,0-1.48.48c-.36.32-.46.18-.59.1a3.29,3.29,0,0,1,0-5.63c1.55-.7-.18-.31-.29-.28a3.47,3.47,0,0,1-4.45-1.88,2.59,2.59,0,0,1-.16-1.65c.11-.16.4-.12.4-.12s1.72-.47.49-1.57c-.35,0-.55-.12-.42-.37s1.66-3,2.85-3A5.75,5.75,0,0,1,24,96.22c.11.33.23-.07.23-.07"/><path class="cls-2" d="M26.33,98.74a.56.56,0,1,0-.56-.56.56.56,0,0,0,.56.56"/><path class="cls-3" d="M28.06,99.46a.23.23,0,1,0,.18-.43.23.23,0,1,0-.18.43"/><path class="cls-2" d="M28.46,104.27a.56.56,0,1,0-.56-.56.56.56,0,0,0,.56.56"/><path class="cls-3" d="M28,101.93a.23.23,0,1,0-.13-.3.23.23,0,0,0,.13.3"/><path class="cls-2" d="M31.91,101.21a.56.56,0,1,0-.56-.56.56.56,0,0,0,.56.56"/><path class="cls-3" d="M29.82,101.29a.23.23,0,1,0,.18-.43.23.23,0,1,0-.18.43"/><path class="cls-2" d="M31,98.7a.56.56,0,1,0-.56-.56.56.56,0,0,0,.56.56"/><path class="cls-3" d="M29.86,100.18a.23.23,0,1,0-.13-.3.23.23,0,0,0,.13.3"/><path class="cls-2" d="M28.81,97.92a.56.56,0,1,0-.56-.56.56.56,0,0,0,.56.56"/><path class="cls-3" d="M29.15,99.54a.23.23,0,1,0-.13-.3.23.23,0,0,0,.13.3"/><path class="cls-2" d="M31,103.38a.56.56,0,1,0-.56-.56.56.56,0,0,0,.56.56"/><path class="cls-3" d="M29.11,102a.23.23,0,0,0,.18-.43.23.23,0,0,0-.3.13.23.23,0,0,0,.13.3"/><path class="cls-4" d="M28.72,101a.56.56,0,1,0-.56-.56.56.56,0,0,0,.56.56"/><path class="cls-2" d="M26.33,103.34a.56.56,0,1,0-.56-.56.56.56,0,0,0,.56.56"/><path class="cls-3" d="M27.33,101.23a.23.23,0,1,0-.13-.3.23.23,0,0,0,.13.3"/><path class="cls-2" d="M25.4,100.87a.56.56,0,1,0-.56-.56.56.56,0,0,0,.56.56"/><path class="cls-3" d="M27.37,100.13a.23.23,0,1,0-.13-.3.23.23,0,0,0,.13.3"/><path class="cls-5" d="M28.62,100.65a.23.23,0,1,0-.13-.3.23.23,0,0,0,.13.3"/></g><g id="_2" data-name="2"><path class="cls-1" d="M30.1,55.91a21.13,21.13,0,0,0-1-2.83c-.89-2.49-.43-7.35,4-9.27,1.27-.55,1.51-.41,1.51-.41a6.07,6.07,0,0,1,.87,1.31c.39.79,2.65.45,3-.38s.63-1.49.63-1.49,5.1,1.08,5.12,5.54a20.27,20.27,0,0,1-.32,4.69s.45.7.58.37,1.75-5.38,8.54-3.75c3.36.8,3.86,1.79,3.69,2.05-.71,1.1-2.88,4.4,1.74,3.88.74,0,2.13,7.4-5,8.65a17.82,17.82,0,0,0-2.28.72c-.4.09-.53.51.53.82S58.5,68.57,56.5,75c-.58,1.85-1.14,2.55-1.53,2.58-1.41-.89-3.39-.74-3.44,1.82-.08.53.5.79-.1,1.18s-5.72,3-8.28-.81-2.11-3.36-2.11-3.36-.53-.61-.39.14-.47,7.52-7.59,7.07c-1-.06-.27,0-.3-.5a2.1,2.1,0,0,0-1.57-2.26,2.44,2.44,0,0,0-2.78.85c-.67.61-.85.33-1.12.15C22.15,78.44,24.06,71.9,27,70.6S26.6,70,26.39,70s-5.58,2.11-8.61-4a5.47,5.47,0,0,1-.43-3.3c.19-.31.76-.2.76-.2s3.25-.82.81-3.1c-.68-.1-1-.28-.84-.77s3-5.82,5.23-5.72,6.12,2.5,6.34,3.17.44-.13.44-.13"/><path class="cls-2" d="M31.87,59.32a1.46,1.46,0,1,0-1.46-1.46,1.46,1.46,0,0,0,1.46,1.46"/><path class="cls-3" d="M36.4,61.19a.61.61,0,1,0-.33-.8.61.61,0,0,0,.33.8"/><path class="cls-2" d="M37.45,73.81A1.46,1.46,0,1,0,36,72.34a1.46,1.46,0,0,0,1.46,1.46"/><path class="cls-3" d="M36.24,67.66a.61.61,0,1,0-.33-.8.61.61,0,0,0,.33.8"/><path class="cls-2" d="M46.47,65.78A1.46,1.46,0,1,0,45,64.32a1.46,1.46,0,0,0,1.46,1.46"/><path class="cls-3" d="M41,66a.61.61,0,1,0-.33-.8A.61.61,0,0,0,41,66"/><path class="cls-2" d="M44,59.2a1.46,1.46,0,1,0-1.46-1.46A1.46,1.46,0,0,0,44,59.2"/><path class="cls-3" d="M41.1,63.08a.61.61,0,1,0-.33-.8.61.61,0,0,0,.33.8"/><path class="cls-2" d="M38.36,57.17a1.46,1.46,0,1,0-1.46-1.46,1.46,1.46,0,0,0,1.46,1.46"/><path class="cls-3" d="M39.25,61.4a.61.61,0,1,0-.33-.8.61.61,0,0,0,.33.8"/><path class="cls-2" d="M44,71.47A1.46,1.46,0,1,0,42.56,70,1.46,1.46,0,0,0,44,71.47"/><path class="cls-3" d="M39.15,67.81a.61.61,0,1,0-.33-.8.61.61,0,0,0,.33.8"/><path class="cls-4" d="M38.11,65.22a1.46,1.46,0,1,0-1.46-1.46,1.46,1.46,0,0,0,1.46,1.46"/><path class="cls-2" d="M31.87,71.35a1.46,1.46,0,1,0-1.46-1.46,1.46,1.46,0,0,0,1.46,1.46"/><path class="cls-3" d="M34.48,65.83a.61.61,0,1,0-.33-.8.61.61,0,0,0,.33.8"/><path class="cls-2" d="M29.42,64.89A1.46,1.46,0,1,0,28,63.42a1.46,1.46,0,0,0,1.46,1.46"/><path class="cls-3" d="M34.57,62.94a.61.61,0,1,0-.33-.8.61.61,0,0,0,.33.8"/><path class="cls-5" d="M37.87,64.32a.61.61,0,1,0-.33-.79.61.61,0,0,0,.33.79"/></g><g id="_1" data-name="1"><path class="cls-1" d="M37,22a7.55,7.55,0,0,0-.31-.84,2.18,2.18,0,0,1,1-2.71c.35-.15.42-.11.42-.11a1.94,1.94,0,0,1,.25.39c.11.23.75.15.84-.09l.16-.44a2,2,0,0,1,1.48,1.68,6.37,6.37,0,0,1-.05,1.38s.13.21.16.11.45-1.57,2.37-1c.95.26,1.09.56,1,.64-.19.32-.77,1.28.52,1.16a1.73,1.73,0,0,1-1.33,2.51,4.62,4.62,0,0,0-.63.2c-.11,0-.14.15.15.25a2.21,2.21,0,0,1,1.41,2.73c-.14.54-.3.74-.41.75-.4-.27-1-.24-.95.51,0,.15.14.23,0,.35s-1.58.83-2.32-.3-.62-1-.62-1-.15-.18-.11,0a1.85,1.85,0,0,1-2.07,2c-.27,0-.08,0-.09-.15a.67.67,0,0,0-.46-.68.64.64,0,0,0-.77.23c-.18.17-.24.09-.31,0a2,2,0,0,1-.18-3.31c.8-.36-.11-.19-.16-.18a2,2,0,0,1-2.44-1.26,1.72,1.72,0,0,1-.15-1c.05-.09.21-.05.21-.05s.9-.21.2-.91c-.19,0-.3-.09-.24-.23S34.47,21,35.11,21a3.43,3.43,0,0,1,1.8,1c.07.2.12,0,.12,0"/><path class="cls-4" d="M38,23.66a.35.35,0,1,0-.35-.35.35.35,0,0,0,.35.35"/><path class="cls-2" d="M39.08,24.12a.15.15,0,0,0,.19-.08.15.15,0,1,0-.19.08"/><path class="cls-4" d="M39.52,27.17a.35.35,0,1,0-.35-.35.35.35,0,0,0,.35.35"/><path class="cls-2" d="M39,25.68a.15.15,0,1,0,.11-.27.15.15,0,1,0-.11.27"/><path class="cls-4" d="M41.52,25.23a.35.35,0,1,0-.35-.35.35.35,0,0,0,.35.35"/><path class="cls-2" d="M40.19,25.28a.15.15,0,0,0,.19-.08.15.15,0,0,0-.08-.2.15.15,0,0,0-.2.08.15.15,0,0,0,.08.19"/><path class="cls-4" d="M40.93,23.64a.35.35,0,1,0-.35-.35.35.35,0,0,0,.35.35"/><path class="cls-2" d="M40.22,24.58a.15.15,0,1,0-.08-.19.15.15,0,0,0,.08.19"/><path class="cls-4" d="M39.56,23.14a.35.35,0,1,0-.35-.35.35.35,0,0,0,.35.35"/><path class="cls-2" d="M39.77,24.17a.15.15,0,0,0,.11-.27.15.15,0,1,0-.11.27"/><path class="cls-4" d="M41.11,26.6a.35.35,0,1,0-.35-.35.35.35,0,0,0,.35.35"/><path class="cls-2" d="M39.75,25.72a.15.15,0,0,0,.19-.08.15.15,0,1,0-.27-.11.15.15,0,0,0,.08.19"/><path class="cls-5" d="M39.5,25.09a.35.35,0,1,0-.35-.35.35.35,0,0,0,.35.35"/><path class="cls-4" d="M39.44,24.88a.14.14,0,0,0,.19-.08.15.15,0,1,0-.27-.11.14.14,0,0,0,.08.19"/><path class="cls-4" d="M38.17,26.58a.35.35,0,1,0-.35-.35.35.35,0,0,0,.35.35"/><path class="cls-2" d="M38.62,25.24a.15.15,0,1,0-.08-.19.15.15,0,0,0,.08.19"/><path class="cls-4" d="M37.39,25a.35.35,0,1,0-.35-.35.35.35,0,0,0,.35.35"/><path class="cls-2" d="M38.64,24.54a.14.14,0,0,0,.19-.08.15.15,0,0,0-.27-.11.15.15,0,0,0,.08.19"/></g></g><g id="Text"><text class="cls-6" transform="translate(71.26 30.16)">S<tspan class="cls-7" x="11.07" y="0">A</tspan><tspan class="cls-8" x="25.59" y="0">N </tspan><tspan class="cls-9" x="49.03" y="0">F</tspan><tspan class="cls-10" x="62.06" y="0">R</tspan><tspan class="cls-7" x="77.64" y="0">A</tspan><tspan class="cls-11" x="92.15" y="0">N</tspan><tspan class="cls-12" x="109.09" y="0">C</tspan><tspan class="cls-13" x="123.13" y="0">I</tspan><tspan class="cls-14" x="131.84" y="0">S</tspan><tspan class="cls-15" x="142.89" y="0">C</tspan><tspan class="cls-16" x="157.03" y="0">O</tspan></text><text class="cls-17" transform="translate(69.26 69.07)">C<tspan class="cls-18" x="26.91" y="0">H</tspan><tspan class="cls-19" x="59.91" y="0">E</tspan><tspan class="cls-20" x="88.07" y="0">R</tspan><tspan class="cls-21" x="116.2" y="0">R</tspan><tspan class="cls-22" x="142.05" y="0">Y</tspan></text><text class="cls-23" transform="translate(71.63 109.67)">B<tspan class="cls-24" x="21.19" y="0">L</tspan><tspan class="cls-25" x="46.49" y="0">O</tspan><tspan class="cls-26" x="72.11" y="0">S</tspan><tspan class="cls-27" x="89.97" y="0">S</tspan><tspan class="cls-28" x="108.17" y="0">O</tspan><tspan class="cls-29" x="133.99" y="0">M</tspan></text><text class="cls-30" transform="translate(71.88 136.03)">F<tspan class="cls-31" x="22.96" y="0">E</tspan><tspan class="cls-32" x="47.59" y="0">S</tspan><tspan class="cls-33" x="68.13" y="0">T</tspan><tspan class="cls-34" x="92.35" y="0">I</tspan><tspan class="cls-35" x="111.09" y="0">V</tspan><tspan class="cls-36" x="133.09" y="0">A</tspan><tspan class="cls-37" x="157.45" y="0">L</tspan></text></g></svg>