<svg xmlns="http://www.w3.org/2000/svg" xmlns:xlink="http://www.w3.org/1999/xlink" viewBox="0 0 1019 384.56"><defs><style>.cls-1{stroke:#000;fill:url(#radial-gradient);}.cls-1,.cls-18,.cls-21{stroke-miterlimit:10;}.cls-2{fill:#020202;}.cls-3{fill:#0303fc;opacity:0.1;}.cls-4{fill:#fc0619;opacity:0.2;}.cls-5{mask:url(#mask);}.cls-6{font-size:24px;}.cls-20,.cls-6,.cls-9{fill:#b9c25e;}.cls-6,.cls-9{font-family:Clavo-Thin, Clavo;}.cls-7{letter-spacing:-0.02em;}.cls-8{letter-spacing:-0.1em;}.cls-9{font-size:78px;letter-spacing:-0.06em;}.cls-10{letter-spacing:-0.09em;}.cls-11{letter-spacing:-0.1em;}.cls-12{letter-spacing:-0.06em;}.cls-13{opacity:0.49;}.cls-14{fill:#5454fc;}.cls-15{fill:#fc6b6b;}.cls-16{fill:#70d2fc;}.cls-17{fill:#ffff7b;}.cls-18,.cls-21{fill:none;stroke:#b9c25e;}.cls-18{opacity:0.6;}.cls-19{font-size:12px;fill:#f9f680;font-family:Clavo-ThinItalic, Clavo;font-style:italic;opacity:0.61;}</style><radialGradient id="radial-gradient" cx="50.86" cy="111.22" r="86.11" gradientTransform="translate(0 -76.04) scale(1 1.68)" gradientUnits="userSpaceOnUse"><stop offset="0.1" stop-color="#fff"/><stop offset="0.88"/></radialGradient><mask id="mask" x="-0.5" y="-1.17" width="91.96" height="226.93" maskUnits="userSpaceOnUse"><rect class="cls-1" y="-0.67" width="90.96" height="225.93"/></mask></defs><title>logocore-body</title><g id="core-body"><rect id="Background_Rectangle_" data-name="Background&lt;Rectangle&gt;" class="cls-2" width="1019" height="384.56"/></g><g id="Layer_24" data-name="Layer 24"><rect id="MainDisplayBackground_Rectangle_" data-name="MainDisplayBackground&lt;Rectangle&gt;" class="cls-3" x="91" width="928" height="225.33"/></g><g id="Layer_23" data-name="Layer 23"><rect id="LefTemperatureLabelBackground_Rectangle_" data-name="LefTemperatureLabelBackground&lt;Rectangle&gt;" class="cls-4" width="90.96" height="225.26"/></g><g id="Layer_22" data-name="Layer 22"><g class="cls-5"><text class="cls-6" transform="translate(28 29.33)">99˚<tspan x="0" y="45">9</tspan><tspan class="cls-7" x="12.48" y="45">8</tspan><tspan x="25.1" y="45">.5˚</tspan><tspan x="0" y="90">98˚</tspan><tspan x="0" y="135">9</tspan><tspan class="cls-8" x="12.48" y="135">7</tspan><tspan x="20.71" y="135">.5˚</tspan><tspan x="0" y="180">97˚</tspan></text></g></g><g id="Layer_21" data-name="Layer 21"><text class="cls-6" transform="translate(98 255.33)">8 hours ago</text></g><g id="Layer_20" data-name="Layer 20"><text class="cls-9" transform="translate(86 342.83)">c<tspan class="cls-10" x="32.68" y="0">o</tspan><tspan class="cls-11" x="70.04" y="0">r</tspan><tspan class="cls-12" x="97.97" y="0">e body </tspan></text></g><g id="Layer_19" data-name="Layer 19"><text class="cls-6" transform="translate(948 255.33)">now</text></g><g id="Layer_18" data-name="Layer 18"><g id="divider" class="cls-13"><rect class="cls-14" y="373.84" width="255.58" height="10.72"/><rect class="cls-15" x="251.99" y="373.84" width="258.59" height="10.72"/><rect class="cls-16" x="510" y="373.84" width="254.59" height="10.72"/><rect class="cls-17" x="763.42" y="373.84" width="255.58" height="10.72"/></g></g><g id="Layer_17" data-name="Layer 17"><line class="cls-18" x1="11" y1="90.5" x2="80" y2="90.5"/></g><g id="Layer_16" data-name="Layer 16"><line class="cls-18" x1="108" y1="94.5" x2="1017.71" y2="94.5"/></g><g id="Layer_15" data-name="Layer 15"><line class="cls-18" x1="108" y1="75.5" x2="1017.71" y2="75.5"/></g><g id="Layer_14" data-name="Layer 14"><line class="cls-18" x1="108" y1="56.5" x2="1017.71" y2="56.5"/></g><g id="Layer_13" data-name="Layer 13"><line class="cls-18" x1="108" y1="37.5" x2="1017.71" y2="37.5"/></g><g id="Layer_12" data-name="Layer 12"><line class="cls-18" x1="108" y1="18.5" x2="1017.71" y2="18.5"/></g><g id="Layer_11" data-name="Layer 11"><line class="cls-18" x1="108" y1="189.5" x2="1017.71" y2="189.5"/></g><g id="Layer_10" data-name="Layer 10"><line class="cls-18" x1="108" y1="170.5" x2="1017.71" y2="170.5"/></g><g id="Layer_9" data-name="Layer 9"><line class="cls-18" x1="108" y1="151.5" x2="1017.71" y2="151.5"/></g><g id="Layer_8" data-name="Layer 8"><line class="cls-18" x1="108" y1="132.5" x2="1017.71" y2="132.5"/></g><g id="Layer_7" data-name="Layer 7"><line class="cls-18" x1="108" y1="113.5" x2="1017.71" y2="113.5"/></g><g id="Layer_6" data-name="Layer 6"><line class="cls-18" x1="108" y1="208.5" x2="1017.71" y2="208.5"/></g><g id="Layer_5" data-name="Layer 5"><line class="cls-18" x1="11" y1="134.5" x2="80" y2="134.5"/></g><g id="Layer_4" data-name="Layer 4"><text class="cls-19" transform="translate(681.92 251.36)">&lt; touch and scroll &gt;</text></g><g id="Layer_3" data-name="Layer 3"><polygon class="cls-20" points="83.51 263.37 7.02 248.23 83.51 233.21 83.51 263.37"/></g><g id="Layer_2" data-name="Layer 2"><polyline id="Graph" class="cls-21" points="1019 92.21 851 57.33 682 104.33 511.45 145.33 338.13 84.33 170.48 134.38 91 158.33"/></g></svg>